<svg xmlns="http://www.w3.org/2000/svg" xmlns:xlink="http://www.w3.org/1999/xlink"
  xmlns:fi="http://pattern.flaticon.com/" x="0" y="0" width="700" height="350" viewBox="0 0 700 350">
  <!-- <rect x="0px" y="0px" width="100%" height="100%" opacity="0" fill="#5daf89" /> -->
  <defs>
    <g transform="matrix(0.07822415232658386 0 0 0.07822415232658386 155 330)" id="L1_38">
      <path
        d="M241.005,338.937c1.664-2.516,4.555-3.875,7.625-3.531l138.562,16.648    c2.5,0.305,4.719,1.766,5.977,3.945l50.43,87.352c1.344,2.328,1.43,5.18,0.227,7.578c-1.203,2.406-3.539,4.047-6.211,4.367    l-57.086,6.812l-34.445,46.031c-1.516,2.031-3.891,3.211-6.406,3.211c-0.156,0-0.32-0.008-0.484-0.016    c-2.688-0.164-5.109-1.664-6.453-4l-92-160C239.231,344.719,239.333,341.461,241.005,338.937z"
        fill="#e9001e" />
      <path
        d="M323.746,363.336c-1.508-2.617-1.406-5.875,0.266-8.398c1.664-2.516,4.555-3.875,7.625-3.531    l63.27,7.602l48.693,84.343c1.344,2.328,1.43,5.18,0.227,7.578c-1.203,2.406-3.539,4.047-6.211,4.367l-57.075,6.811    L323.746,363.336z"
        fill="#ff4f19" />
      <path
        d="M270.348,338.937c-1.664-2.516-4.555-3.875-7.625-3.531L124.16,352.055    c-2.5,0.305-4.719,1.766-5.977,3.945l-50.43,87.352c-1.344,2.328-1.43,5.18-0.227,7.578c1.203,2.406,3.539,4.047,6.211,4.367    l57.086,6.812l34.445,46.031c1.516,2.031,3.891,3.211,6.406,3.211c0.156,0,0.32-0.008,0.484-0.016    c2.688-0.164,5.109-1.664,6.453-4l92-160C272.121,344.719,272.019,341.461,270.348,338.937z"
        fill="#ff4f19" />
      <path
        d="M187.607,363.336c1.508-2.617,1.406-5.875-0.266-8.398c-1.664-2.516-4.555-3.875-7.625-3.531    l-63.27,7.602l-48.693,84.343c-1.344,2.328-1.43,5.18-0.227,7.578c1.203,2.406,3.539,4.047,6.211,4.367l57.075,6.811    L187.607,363.336z"
        fill="#e9001e" />
      <path
        d="M437.238,163.875c-8.109-8.062-15.781-15.68-18.914-23.234c-3.367-8.109-3.391-19.82-3.414-31.148    C414.863,91.547,414.824,73,402.754,60.93c-12.07-12.078-30.625-12.117-48.562-12.164c-11.328-0.023-23.039-0.055-31.148-3.414    c-7.562-3.133-15.18-10.805-23.242-18.922C287.496,14.039,273.551,0,255.676,0s-31.82,14.039-44.125,26.43    c-8.062,8.117-15.68,15.789-23.242,18.922c-8.109,3.367-19.82,3.391-31.148,3.414c-17.937,0.047-36.484,0.086-48.562,12.156    C96.527,73,96.488,91.547,96.441,109.484c-0.023,11.328-0.047,23.039-3.414,31.148c-3.141,7.562-10.805,15.18-18.922,23.242    c-12.391,12.305-26.43,26.25-26.43,44.125c0,17.883,14.039,31.828,26.43,44.133c8.117,8.062,15.789,15.672,18.922,23.234    c3.367,8.109,3.391,19.82,3.414,31.148c0.047,17.945,0.086,36.492,12.156,48.562c12.07,12.078,30.625,12.117,48.57,12.156    c11.328,0.031,23.031,0.055,31.141,3.414c7.562,3.141,15.18,10.805,23.242,18.922c12.305,12.391,26.25,26.43,44.125,26.43    s31.82-14.039,44.125-26.43c8.062-8.117,15.68-15.781,23.242-18.922c8.102-3.359,19.812-3.383,31.133-3.414    c17.945-0.039,36.5-0.078,48.578-12.156c12.07-12.07,12.109-30.617,12.156-48.562c0.023-11.328,0.047-23.039,3.414-31.148    c3.133-7.562,10.805-15.172,18.922-23.234c12.391-12.305,26.43-26.25,26.43-44.133    C463.676,190.125,449.629,176.18,437.238,163.875z"
        fill="#ffd200" />
      <path
        d="M93.027,140.633c-3.141,7.562-10.805,15.18-18.922,23.242c-12.391,12.305-26.43,26.25-26.43,44.125    c0,17.883,14.039,31.828,26.43,44.133c8.117,8.062,15.789,15.672,18.922,23.234c3.367,8.109,3.391,19.82,3.414,31.148    c0.047,17.945,0.086,36.492,12.156,48.562c12.07,12.078,30.625,12.117,48.57,12.156c11.328,0.031,23.031,0.055,31.141,3.414    c7.562,3.141,15.18,10.805,23.242,18.922c12.305,12.391,26.25,26.43,44.125,26.43s31.82-14.039,44.125-26.43    c8.062-8.117,15.68-15.781,23.242-18.922c8.102-3.359,19.812-3.383,31.133-3.414c17.945-0.039,36.5-0.078,48.578-12.156    L108.598,60.922C96.527,73,96.488,91.547,96.441,109.484C96.418,120.812,96.394,132.523,93.027,140.633z"
        fill="#ff9600" />
      <circle cx="255" cy="208" r="136" fill="#ffffff" />
      <path
        d="M335.181,286.857l-158.36-158.36c-20.46,20.293-33.145,48.412-33.145,79.506    c0,61.856,50.144,112,112,112C286.769,320.003,314.888,307.317,335.181,286.857z"
        fill="#ff9600" />
      <path
        d="M159.39,111.065c-24.921,24.754-40.365,59.037-40.365,96.937    c0,75.47,61.181,136.651,136.651,136.651c37.901,0,72.183-15.445,96.937-40.366L159.39,111.065z"
        fill="#ffd200" />
      <circle cx="255" cy="208" r="112" fill="#ffd200" />
      <path
        d="M176.821,128.497c-20.46,20.293-33.145,48.412-33.145,79.506c0,61.856,50.144,112,112,112    c31.094,0,59.212-12.686,79.506-33.146L176.821,128.497z"
        fill="#ff9600" />
      <circle cx="296" cy="167" r="32" fill="#ffffff" />
    </g>
    <g transform="matrix(0.0396825410425663 0 0 0.0396825410425663 77.5 340)" id="L1_39">
      <path d="M460,160.427c23.686-11.789,40-36.173,40-64.427s-16.314-52.638-40-64.427" fill="#53dcff" />
      <path
        d="M452,192h-48c-4.418,0-8-3.582-8-8V8c0-4.418,3.582-8,8-8h48c4.418,0,8,3.582,8,8v176    C460,188.418,456.418,192,452,192z"
        fill="#5c546a" />
      <path d="M220,144H116c-4.418,0-8-3.582-8-8V56c0-4.418,3.582-8,8-8h104" fill="#b9bbc1" />
      <path d="M108,128H44c-4.418,0-8-3.582-8-8V72c0-4.418,3.582-8,8-8h64" fill="#d8dce1" />
      <path d="M36,112H12c-4.418,0-8-3.582-8-8V88c0-4.418,3.582-8,8-8h24" fill="#d8dce1" />
      <path
        d="M252,504c-4.422,0-8-3.582-8-8V200c0-4.418,3.578-8,8-8s8,3.582,8,8v296     C260,500.418,256.422,504,252,504z"
        fill="#5c546a" />
      <path
        d="M67.992,504c-1.328,0-2.672-0.328-3.906-1.023c-3.852-2.16-5.227-7.039-3.062-10.891l184-328     c2.164-3.859,7.047-5.227,10.891-3.062c3.852,2.16,5.227,7.039,3.062,10.891l-184,328C73.508,502.531,70.789,504,67.992,504z"
        fill="#5c546a" />
      <path
        d="M436.008,504c-2.797,0-5.516-1.469-6.984-4.086l-184-328c-2.164-3.852-0.789-8.73,3.062-10.891     c3.836-2.156,8.727-0.797,10.891,3.062l184,328c2.164,3.852,0.789,8.73-3.062,10.891C438.679,503.672,437.336,504,436.008,504z"
        fill="#5c546a" />
      <path d="M396,168H228c-4.418,0-8-3.582-8-8V32c0-4.418,3.582-8,8-8h168V168z" fill="#8b8996" />
      <circle cx="252" cy="168" r="32" fill="#5c546a" />
      <circle cx="252" cy="168" r="16" fill="#8b8996" />
    </g>
    <g transform="matrix(0.08374277176811055 0.009304752559562908 -0.009304752559562908 0.08374277176811055 -19.056132917388197 151.1798337721156)"
      id="L1_40">
      <rect x="32px" y="132px" width="448px" height="312px" fill="#ffe1b2" />
      <rect x="32px" y="396px" width="448px" height="48px" fill="#ffb980" />
      <rect x="32px" y="116px" width="448px" height="56px" fill="#ffb980" />
      <path d="M192,188H80c-4.418,0-8,3.582-8,8v240h128V196C200,191.582,196.418,188,192,188z" fill="#7e5c62" />
      <path d="M504,452H8c-4.422,0-8-3.578-8-8s3.578-8,8-8h496c4.422,0,8,3.578,8,8S508.422,452,504,452z"
        fill="#5c546a" />
      <path
        d="M176,340c-4.422,0-8-3.578-8-8v-16c0-4.422,3.578-8,8-8s8,3.578,8,8v16     C184,336.422,180.422,340,176,340z"
        fill="#5c546a" />
      <path
        d="M40,156L40,156c-13.255,0-24-10.745-24-24V76c0-8.837,7.163-16,16-16h32v72    C64,145.255,53.255,156,40,156z"
        fill="#ff4f19" />
      <path d="M88,156L88,156c-13.255,0-24-10.745-24-24V60h48v72C112,145.255,101.255,156,88,156z" fill="#e9001e" />
      <path d="M136,156L136,156c-13.255,0-24-10.745-24-24V60h48v72C160,145.255,149.255,156,136,156z" fill="#ff4f19" />
      <path d="M184,156L184,156c-13.255,0-24-10.745-24-24V60h48v72C208,145.255,197.255,156,184,156z" fill="#e9001e" />
      <path d="M232,156L232,156c-13.255,0-24-10.745-24-24V60h48v72C256,145.255,245.255,156,232,156z" fill="#ff4f19" />
      <path d="M280,156L280,156c-13.255,0-24-10.745-24-24V60h48v72C304,145.255,293.255,156,280,156z" fill="#e9001e" />
      <path d="M328,156L328,156c-13.255,0-24-10.745-24-24V60h48v72C352,145.255,341.255,156,328,156z" fill="#ff4f19" />
      <path d="M376,156L376,156c-13.255,0-24-10.745-24-24V60h48v72C400,145.255,389.255,156,376,156z" fill="#e9001e" />
      <path d="M424,156L424,156c-13.255,0-24-10.745-24-24V60h48v72C448,145.255,437.255,156,424,156z" fill="#ff4f19" />
      <path
        d="M472,156L472,156c-13.255,0-24-10.745-24-24V60h32c8.837,0,16,7.163,16,16v56    C496,145.255,485.255,156,472,156z"
        fill="#e9001e" />
      <path
        d="M440,196H240c-4.418,0-8,3.582-8,8v160c0,4.418,3.582,8,8,8h200c4.418,0,8-3.582,8-8V204    C448,199.582,444.418,196,440,196z"
        fill="#53dcff" />
      <path
        d="M397.588,372H440c4.418,0,8-3.582,8-8v-9.47L289.47,196H232c-2.835,0-5.207,1.56-6.628,3.784    L397.588,372z"
        fill="#b3f4ff" />
      <path d="M334.059,196 448,309.941 448,276 368,196z" fill="#ffffff" />
      <path
        d="M440,380H240c-8.82,0-16-7.18-16-16V204c0-8.82,7.18-16,16-16h200c8.82,0,16,7.18,16,16v160     C456,372.82,448.82,380,440,380z M240,204v160h200.016L440,204H240z"
        fill="#7e5c62" />
      <path
        d="M176,292H96c-4.418,0-8-3.582-8-8v-72c0-4.418,3.582-8,8-8h80c4.418,0,8,3.582,8,8v72    C184,288.418,180.418,292,176,292z"
        fill="#53dcff" />
      <path d="M136.099,204H96c-4.418,0-8,3.582-8,8v11.784L156.216,292H176c4.418,0,8-3.582,8-8v-32.099    L136.099,204z"
        fill="#b3f4ff" />
    </g>
    <g transform="matrix(0.09765644371509552 0 0 0.09765644371509552 62.5 237.5)" id="L1_41">
      <path
        d="M149.6,441.747l73.469-80l-15.738-41.083c0,0-47.333,6.667-48.667,10.667    c-1.333,4-5.333,57.333-6,66.667C151.998,407.33,149.6,441.747,149.6,441.747"
        fill="#5c546a" />
      <path
        d="M509.764,38.45c-2.219-2.297-5.578-3.047-8.547-1.953l-496,184    c-3.031,1.125-5.086,3.961-5.211,7.191s1.703,6.219,4.641,7.574l89.227,41.176c6.938,3.207,11.977,9.594,13.477,17.086    l28.805,144.043c0.664,3.305,3.328,5.844,6.664,6.344c3.281,0.473,6.617-1.152,8.227-4.121l45.477-84.453    c1.234-2.293,3.422-3.805,6-4.141c2.602-0.336,5.078,0.551,6.859,2.449L322.17,473.481c1.531,1.621,3.641,2.516,5.828,2.516    c0.477,0,0.961-0.043,1.438-0.129c2.672-0.488,4.914-2.297,5.953-4.805l176-424C512.607,44.126,511.967,40.743,509.764,38.45z"
        fill="#b9bbc1" />
      <path
        d="M506.198,36.365l-404.971,245.58c3.012,3.225,5.238,7.158,6.124,11.578l28.805,144.043    c0.664,3.305,3.328,5.844,6.664,6.344c3.281,0.473,6.617-1.152,8.227-4.121l45.477-84.453c0.32-0.594,0.855-0.97,1.293-1.452    c0.035-0.176,0.069-0.351,0.069-0.351L509.702,38.403C508.713,37.399,507.495,36.738,506.198,36.365z"
        fill="#8b8996" />
    </g>
    <g transform="matrix(0.078125 0 0 0.078125 242.5 67.5)" id="L1_42">
      <path
        d="M184,98.664V79.109C184,66.367,194.367,56,207.109,56h97.781C317.633,56,328,66.367,328,79.109    v19.555h32V79.109C360,48.719,335.277,24,304.89,24h-97.781C176.723,24,152,48.719,152,79.109v19.555H184z"
        fill="#7e5c62" />
      <path
        d="M472,96H40c-22.055,0-40,17.945-40,40v312c0,22.055,17.945,40,40,40h432c22.055,0,40-17.945,40-40    V136C512,113.945,494.054,96,472,96z"
        fill="#9f6459" />
      <path
        d="M488,336H24c-13.234,0-24-10.766-24-24v136c0,22.055,17.945,40,40,40h432c22.055,0,40-17.945,40-40    V312C512,325.234,501.234,336,488,336z"
        fill="#7e5c62" />
      <path
        d="M104,400L104,400c-8.837,0-16-7.163-16-16v-80c0-8.837,7.163-16,16-16h0c8.837,0,16,7.163,16,16v80    C120,392.836,112.837,400,104,400z"
        fill="#ff9600" />
      <path
        d="M104,360L104,360c-8.837,0-16-7.163-16-16v-40c0-8.837,7.163-16,16-16h0c8.837,0,16,7.163,16,16v40    C120,352.836,112.837,360,104,360z"
        fill="#ffd200" />
      <path
        d="M400,400L400,400c-8.837,0-16-7.163-16-16v-80c0-8.837,7.163-16,16-16h0c8.837,0,16,7.163,16,16v80    C416,392.836,408.836,400,400,400z"
        fill="#ff9600" />
      <path
        d="M400,360L400,360c-8.837,0-16-7.163-16-16v-40c0-8.837,7.163-16,16-16h0c8.837,0,16,7.163,16,16v40    C416,352.836,408.836,360,400,360z"
        fill="#ffd200" />
      <path
        d="M304,312h-96c-4.418,0-8-3.582-8-8l0,0c0-4.418,3.582-8,8-8h96c4.418,0,8,3.582,8,8l0,0    C312,308.418,308.418,312,304,312z"
        fill="#ffd200" />
    </g>
    <g transform="matrix(0.07086081759436769 -0.014660858846444852 0.014660858846444852 0.07086081759436769 152.106450831152 155.61281056053176)"
      id="L1_43">
      <path
        d="M448.617,72.023c-4.547-0.383-8.258,2.953-8.594,7.359L439.976,80H72.024l-0.047-0.617    c-0.336-4.406-4.133-7.734-8.594-7.359c-4.398,0.336-7.695,4.188-7.359,8.594L85.75,475.062    C87.344,495.773,104.859,512,125.633,512h260.734c20.773,0,38.289-16.227,39.883-36.93l29.727-394.453    C456.312,76.211,453.015,72.359,448.617,72.023z"
        fill="#b9bbc1" />
      <path
        d="M256,80H72.024l-0.047-0.617c-0.336-4.406-4.133-7.734-8.594-7.359    c-4.398,0.336-7.695,4.188-7.359,8.594L85.75,475.062C87.344,495.773,104.859,512,125.633,512H256V80z"
        fill="#8b8996" />
      <path
        d="M408.325,0H103.675C90.921,0,79.385,7.574,74.313,19.277L52.845,68.819    C50.556,74.102,54.428,80,60.185,80h391.629c5.757,0,9.63-5.898,7.34-11.181l-21.468-49.543C432.615,7.574,421.079,0,408.325,0z"
        fill="#5c546a" />
      <circle cx="256" cy="408" r="16" fill="#5c546a" />
      <path d="M272,408h-32c-13.255,0-24-10.745-24-24v-32h80v32C296,397.255,285.255,408,272,408z" fill="#d8dce1" />
      <path d="M256,352h-40v32c0,13.255,10.745,24,24,24h16V352z" fill="#b9bbc1" />
      <circle cx="256" cy="272" r="96" fill="#ffef43" />
      <path d="M160,272c0,53.019,42.98,96,96,96V176C202.98,176,160,218.98,160,272z" fill="#ffd200" />
      <path
        d="M291.548,260.126h-32.724l5.432-43.937c0.633-4.179-0.826-4.762-3.243-1.294l-39.051,54.756    c-2.417,3.468-0.936,6.306,3.291,6.306h28.532l-5.859,51.853c-0.633,4.179,0.826,4.762,3.243,1.293l43.67-62.673    C297.256,262.963,295.775,260.126,291.548,260.126z"
        fill="#ff4f19" />
      <path
        d="M459.154,68.819l-21.468-49.542C432.615,7.574,421.079,0,408.324,0H256v80h195.814    C457.572,80,461.443,74.102,459.154,68.819z"
        fill="#5d647f" />
      <path
        d="M456,88H56c-8.837,0-16-7.163-16-16v-8c0-8.837,7.163-16,16-16h400c8.837,0,16,7.163,16,16v8    C472,80.837,464.836,88,456,88z"
        fill="#5c546a" />
    </g>
    <g transform="matrix(0.06850993589892877 0.018444982692698973 -0.018444982692698973 0.06850993589892877 337.18336253036193 327.73948804848317)"
      id="L1_44">
      <rect x="48px" y="107px" width="416px" height="256px" fill="#ffffff" />
      <rect x="48px" y="107px" width="416px" height="64px" fill="#ff4f19" />
      <path
        d="M459.133,75.984H52.852C32.531,75.984,16,92.477,16,112.75v291.234c0,4.422,3.578,8,8,8h464    c4.422,0,8-3.578,8-8V112.75C496,92.477,479.461,75.984,459.133,75.984z M48,355.984v-240c0-4.418,3.582-8,8-8h400    c4.418,0,8,3.582,8,8v240c0,4.418-3.582,8-8,8H56C51.582,363.984,48,360.402,48,355.984z"
        fill="#5c546a" />
      <path
        d="M504,395.984H8c-4.422,0-8,3.578-8,8l0,0c0,17.664,14.367,32.031,32.031,32.031h447.937    c17.664,0,32.031-14.367,32.031-32.031l0,0C512,399.562,508.422,395.984,504,395.984z"
        fill="#b9bbc1" />
      <path
        d="M144,147.984H88c-4.422,0-8-3.578-8-8c0-4.422,3.578-8,8-8h56c4.422,0,8,3.578,8,8     C152,144.406,148.422,147.984,144,147.984z"
        fill="#ffd200" />
      <path
        d="M288,147.984h-8c-4.422,0-8-3.578-8-8c0-4.422,3.578-8,8-8h8c4.422,0,8,3.578,8,8     C296,144.406,292.422,147.984,288,147.984z"
        fill="#ffffff" />
      <path
        d="M328,147.984h-8c-4.422,0-8-3.578-8-8c0-4.422,3.578-8,8-8h8c4.422,0,8,3.578,8,8     C336,144.406,332.422,147.984,328,147.984z"
        fill="#ffffff" />
      <path
        d="M368,147.984h-8c-4.422,0-8-3.578-8-8c0-4.422,3.578-8,8-8h8c4.422,0,8,3.578,8,8     C376,144.406,372.422,147.984,368,147.984z"
        fill="#ffffff" />
      <path
        d="M408,147.984h-8c-4.422,0-8-3.578-8-8c0-4.422,3.578-8,8-8h8c4.422,0,8,3.578,8,8     C416,144.406,412.422,147.984,408,147.984z"
        fill="#ffffff" />
      <path
        d="M224,339.984H88c-4.418,0-8-3.582-8-8v-128c0-4.418,3.582-8,8-8h136c4.418,0,8,3.582,8,8v128    C232,336.402,228.418,339.984,224,339.984z"
        fill="#53dcff" />
      <path
        d="M416,211.984H264c-4.422,0-8-3.578-8-8c0-4.422,3.578-8,8-8h152c4.422,0,8,3.578,8,8     C424,208.406,420.422,211.984,416,211.984z"
        fill="#ff4f19" />
      <path
        d="M328,275.984h-64c-4.422,0-8-3.578-8-8s3.578-8,8-8h64c4.422,0,8,3.578,8,8     S332.422,275.984,328,275.984z"
        fill="#b9bbc1" />
      <path
        d="M328,307.984h-64c-4.422,0-8-3.578-8-8s3.578-8,8-8h64c4.422,0,8,3.578,8,8     S332.422,307.984,328,307.984z"
        fill="#b9bbc1" />
      <path
        d="M328,339.984h-64c-4.422,0-8-3.578-8-8s3.578-8,8-8h64c4.422,0,8,3.578,8,8     S332.422,339.984,328,339.984z"
        fill="#b9bbc1" />
      <path
        d="M424,275.984h-64c-4.422,0-8-3.578-8-8s3.578-8,8-8h64c4.422,0,8,3.578,8,8     S428.422,275.984,424,275.984z"
        fill="#b9bbc1" />
      <path
        d="M424,307.984h-64c-4.422,0-8-3.578-8-8s3.578-8,8-8h64c4.422,0,8,3.578,8,8     S428.422,307.984,424,307.984z"
        fill="#b9bbc1" />
      <path
        d="M424,339.984h-64c-4.422,0-8-3.578-8-8s3.578-8,8-8h64c4.422,0,8,3.578,8,8     S428.422,339.984,424,339.984z"
        fill="#b9bbc1" />
      <path
        d="M368,243.984H264c-4.422,0-8-3.578-8-8c0-4.422,3.578-8,8-8h104c4.422,0,8,3.578,8,8     C376,240.406,372.422,243.984,368,243.984z"
        fill="#e9001e" />
      <path d="M224,411.984h64c8.836,0,16-7.164,16-16h-96C208,404.821,215.163,411.984,224,411.984z" fill="#8b8996" />
    </g>
    <g transform="matrix(0.08248284459114075 0 0 0.08248284459114075 241.38439178466797 241.38439178466797)" id="L1_45">
      <path
        d="M404,200h-32c-8.589,0-16.727,1.934-24,5.389l0.002,50.592C348.013,242.756,358.773,232,372,232h32    c13.234,0,24,10.766,24,24v96c0,13.233-10.766,24-24,24h-32c-13.212,0-23.958-10.732-23.994-23.937l0.002,50.552    C355.281,406.068,363.414,408,372,408h32c30.928,0,56-25.072,56-56v-96C460,225.072,434.928,200,404,200z"
        fill="#8b8996" />
      <path
        d="M316,464c-4.422,0-8,3.578-8,8H100c0-4.422-3.578-8-8-8s-8,3.578-8,8c0,22.055,17.945,40,40,40h160    c22.055,0,40-17.945,40-40C324,467.578,320.422,464,316,464z"
        fill="#5c546a" />
      <path
        d="M340,144H68c-8.82,0-16,7.18-16,16v280c0,22.055,17.945,40,40,40h224c22.055,0,40-17.945,40-40V160    C356,151.18,348.82,144,340,144z"
        fill="#b9bbc1" />
      <path
        d="M196,128c-4.422,0-8-3.578-8-8c0-12.289,5.508-18.711,9.93-23.867     c3.656-4.258,6.07-7.078,6.07-13.445c0-6.375-2.414-9.195-6.078-13.469C193.5,64.062,188,57.641,188,45.344     s5.5-18.719,9.922-23.875C201.586,17.195,204,14.375,204,8c0-4.422,3.578-8,8-8s8,3.578,8,8c0,12.297-5.5,18.719-9.922,23.875     C206.414,36.148,204,38.969,204,45.344s2.414,9.195,6.078,13.469C214.5,63.969,220,70.391,220,82.687     c0,12.289-5.508,18.711-9.93,23.867c-3.656,4.258-6.07,7.078-6.07,13.445C204,124.422,200.422,128,196,128z"
        fill="#d8dce1" />
      <path
        d="M236,128c-4.422,0-8-3.578-8-8c0-12.289,5.508-18.711,9.93-23.867     c3.656-4.258,6.07-7.078,6.07-13.445c0-6.375-2.414-9.195-6.078-13.469C233.5,64.062,228,57.641,228,45.344c0-4.422,3.578-8,8-8     c4.422,0,8,3.578,8,8c0,6.375,2.414,9.195,6.078,13.469C254.5,63.969,260,70.391,260,82.687c0,12.289-5.508,18.711-9.93,23.867     c-3.656,4.258-6.07,7.078-6.07,13.445C244,124.422,240.422,128,236,128z"
        fill="#d8dce1" />
      <path
        d="M156,128c-4.422,0-8-3.578-8-8c0-12.289,5.508-18.711,9.93-23.867     c3.656-4.258,6.07-7.078,6.07-13.445c0-6.375-2.414-9.195-6.078-13.469C153.5,64.062,148,57.641,148,45.344c0-4.422,3.578-8,8-8     s8,3.578,8,8c0,6.375,2.414,9.195,6.078,13.469C174.5,63.969,180,70.391,180,82.687c0,12.289-5.508,18.711-9.93,23.867     c-3.656,4.258-6.07,7.078-6.07,13.445C164,124.422,160.422,128,156,128z"
        fill="#d8dce1" />
      <path d="M204,144H68c-8.82,0-16,7.18-16,16v280c0,22.055,17.945,40,40,40h112V144z" fill="#8b8996" />
    </g>
    <g transform="matrix(0.0390625 0 0 0.0390625 252.5 340)" id="L1_46">
      <path d="M328,328c-79.403,0-144-64.596-144-144S248.596,40,328,40s144,64.596,144,144S407.403,328,328,328z    "
        fill="#b3f4ff" />
      <path
        d="M165.212,359.987c-3.662,0-7.325-1.398-10.12-4.193c-5.591-5.591-5.591-14.656,0-20.24     l43.919-43.913c5.591-5.591,14.649-5.591,20.24,0s5.591,14.656,0,20.24l-43.919,43.912     C172.537,358.589,168.874,359.987,165.212,359.987z"
        fill="#8b8996" />
      <path
        d="M328,0C226.539,0,144,82.543,144,184s82.539,184,184,184s184-82.543,184-184S429.461,0,328,0z     M328,328c-79.403,0-144-64.596-144-144S248.596,40,328,40s144,64.596,144,144S407.403,328,328,328z"
        fill="#b9bbc1" />
      <path
        d="M180.555,331.441C173.18,324.062,163.375,320,152.937,320c-10.438,0-20.242,4.062-27.625,11.441    L11.445,445.312C4.062,452.687,0,462.5,0,472.933c0,10.438,4.062,20.246,11.445,27.625C18.82,507.937,28.633,512,39.062,512    c10.437,0,20.25-4.062,27.625-11.441l113.867-113.871C187.937,379.312,192,369.5,192,359.066    C192,348.629,187.937,338.82,180.555,331.441z"
        fill="#9f6459" />
      <path
        d="M180.555,331.441C173.18,324.062,163.375,320,152.937,320c-10.438,0-20.242,4.062-27.625,11.441    L11.445,445.312C4.062,452.687,0,462.5,0,472.933c0,10.438,4.062,20.246,11.445,27.625l169.113-169.113    C180.558,331.446,180.556,331.443,180.555,331.441z"
        fill="#7e5c62" />
      <path d="M356,220c-35.29,0-64-28.71-64-64s28.71-64,64-64s64,28.71,64,64S391.29,220,356,220z" fill="#ffffff" />
    </g>
    <g transform="matrix(0.078125 0 0 0.078125 67.5 67.5)" id="L1_47">
      <path
        d="M416,0H64c-8.82,0-16,7.176-16,16v448c0,8.82,7.18,16,16,16h352c8.82,0,16-7.18,16-16V16    C432,7.176,424.82,0,416,0z"
        fill="#b9bbc1" />
      <path
        d="M384,32H32c-8.82,0-16,7.176-16,16v448c0,8.82,7.18,16,16,16h352c8.82,0,16-7.18,16-16V48    C400,39.176,392.82,32,384,32z"
        fill="#d8dce1" />
      <g>
        <path d="M328,120H72c-4.422,0-8-3.582-8-8s3.578-8,8-8h256c4.422,0,8,3.582,8,8S332.422,120,328,120z"
          fill="#5c546a" />
        <path d="M328,216H72c-4.422,0-8-3.578-8-8s3.578-8,8-8h256c4.422,0,8,3.578,8,8S332.422,216,328,216z"
          fill="#8b8996" />
        <path d="M328,440H72c-4.422,0-8-3.578-8-8s3.578-8,8-8h256c4.422,0,8,3.578,8,8S332.422,440,328,440z"
          fill="#b9bbc1" />
        <path d="M328,312H72c-4.422,0-8-3.578-8-8s3.578-8,8-8h256c4.422,0,8,3.578,8,8S332.422,312,328,312z"
          fill="#8b8996" />
        <path
          d="M136,152H72c-4.422,0-8-3.582-8-8c0-4.418,3.578-8,8-8h64c4.422,0,8,3.582,8,8      C144,148.418,140.422,152,136,152z"
          fill="#5c546a" />
        <path
          d="M328,152H168c-4.422,0-8-3.582-8-8c0-4.418,3.578-8,8-8h160c4.422,0,8,3.582,8,8      C336,148.418,332.422,152,328,152z"
          fill="#5c546a" />
        <path d="M264,184H72c-4.422,0-8-3.578-8-8s3.578-8,8-8h192c4.422,0,8,3.578,8,8S268.422,184,264,184z"
          fill="#8b8996" />
        <path d="M328,184h-32c-4.422,0-8-3.578-8-8s3.578-8,8-8h32c4.422,0,8,3.578,8,8S332.422,184,328,184z"
          fill="#8b8996" />
        <path
          d="M328,408H72c-4.422,0-8-3.578-8-8c0-4.422,3.578-8,8-8h256c4.422,0,8,3.578,8,8      C336,404.422,332.422,408,328,408z"
          fill="#b9bbc1" />
        <path d="M136,344H72c-4.422,0-8-3.578-8-8s3.578-8,8-8h64c4.422,0,8,3.578,8,8S140.422,344,136,344z"
          fill="#8b8996" />
        <path d="M328,344H168c-4.422,0-8-3.578-8-8s3.578-8,8-8h160c4.422,0,8,3.578,8,8S332.422,344,328,344z"
          fill="#b9bbc1" />
        <path d="M264,376H72c-4.422,0-8-3.578-8-8s3.578-8,8-8h192c4.422,0,8,3.578,8,8S268.422,376,264,376z"
          fill="#b9bbc1" />
        <path d="M328,376h-32c-4.422,0-8-3.578-8-8s3.578-8,8-8h32c4.422,0,8,3.578,8,8S332.422,376,328,376z"
          fill="#b9bbc1" />
        <path d="M176,248H72c-4.422,0-8-3.578-8-8s3.578-8,8-8h104c4.422,0,8,3.578,8,8S180.422,248,176,248z"
          fill="#8b8996" />
        <path d="M328,248H208c-4.422,0-8-3.578-8-8s3.578-8,8-8h120c4.422,0,8,3.578,8,8S332.422,248,328,248z"
          fill="#8b8996" />
        <path d="M240,280H72c-4.422,0-8-3.578-8-8s3.578-8,8-8h168c4.422,0,8,3.578,8,8S244.422,280,240,280z"
          fill="#8b8996" />
        <path d="M328,280h-56c-4.422,0-8-3.578-8-8s3.578-8,8-8h56c4.422,0,8,3.578,8,8S332.422,280,328,280z"
          fill="#8b8996" />
      </g>
      <g>
        <path d="M448,448l16.337,54.458c2.28,7.602,13.045,7.602,15.325,0L496,448H448z" fill="#8b8996" />
        <circle cx="472" cy="176" r="24" fill="#8b8996" />
        <rect x="448px" y="176px" width="48px" height="272px" fill="#ffd200" />
        <rect x="448px" y="176px" width="24px" height="272px" fill="#ff9600" />
        <path d="M457.6,480l6.737,22.458c2.28,7.602,13.045,7.602,15.325,0L486.4,480H457.6z" fill="#5c546a" />
      </g>
    </g>
    <g transform="matrix(0.06352912818941532 0.00828640797654897 -0.00828640797654897 0.06352912818941532 149.8578636255062 59.61522274151314)"
      id="L1_48">
      <path
        d="M488,208h-21.391c-5.398-23.852-14.711-46.332-27.734-66.992l15.117-15.117    c9.352-9.355,9.352-24.582,0-33.937l-33.945-33.941c-9.062-9.07-24.875-9.07-33.937,0l-15.117,15.113    C350.328,60.098,327.844,50.789,304,45.391V24c0-13.234-10.766-24-24-24h-48c-13.234,0-24,10.766-24,24v21.391    c-23.844,5.398-46.328,14.707-66.992,27.734l-15.117-15.113c-9.062-9.07-24.875-9.07-33.937,0L58.008,91.953    c-9.352,9.355-9.352,24.582,0,33.937l15.125,15.121C60.094,161.68,50.789,184.16,45.391,208H24c-13.234,0-24,10.766-24,24v48    c0,13.234,10.766,24,24,24h21.391c5.398,23.84,14.703,46.32,27.742,66.988l-15.125,15.121c-9.352,9.355-9.352,24.582,0,33.937    l33.945,33.941c9.062,9.07,24.875,9.07,33.937,0l15.117-15.113c20.664,13.027,43.148,22.336,66.992,27.734V488    c0,13.234,10.766,24,24,24h48c13.234,0,24-10.766,24-24v-21.391c23.844-5.398,46.328-14.707,66.992-27.734l15.117,15.113    c9.062,9.07,24.875,9.07,33.937,0l33.945-33.941c9.352-9.355,9.352-24.582,0-33.937l-15.117-15.117    c13.023-20.66,22.336-43.141,27.734-66.992H488c13.234,0,24-10.766,24-24v-48C512,218.766,501.234,208,488,208z M256,376    c-66.166,0-120-53.83-120-120s53.834-120,120-120s120,53.83,120,120S322.166,376,256,376z"
        fill="#8b8996" />
      <path
        d="M488,208h-21.391c-5.398-23.852-14.711-46.332-27.734-66.992l15.117-15.117    c9.352-9.355,9.352-24.582,0-33.937l-33.945-33.941c-9.062-9.07-24.875-9.07-33.937,0l-15.117,15.113    C350.328,60.098,327.844,50.789,304,45.391V24c0-13.234-10.766-24-24-24h-24v136c66.166,0,120,53.83,120,120s-53.834,120-120,120    v136h24c13.234,0,24-10.766,24-24v-21.391c23.844-5.398,46.328-14.707,66.992-27.734l15.117,15.113    c9.062,9.07,24.875,9.07,33.937,0l33.945-33.941c9.352-9.355,9.352-24.582,0-33.937l-15.117-15.117    c13.023-20.66,22.336-43.141,27.734-66.992H488c13.234,0,24-10.766,24-24v-48C512,218.766,501.234,208,488,208z"
        fill="#b9bbc1" />
      <path
        d="M408,256c0-83.947-68.053-152-152-152s-152,68.053-152,152s68.053,152,152,152S408,339.947,408,256    z M136,256c0-66.17,53.834-120,120-120s120,53.83,120,120s-53.834,120-120,120S136,322.17,136,256z"
        fill="#5c546a" />
    </g>
    <g transform="matrix(0.1171875 0 0 0.1171875 159 240)" id="L1_49">
      <path
        d="M256,448c-4.422,0-8-3.582-8-8V264c0-4.418,3.578-8,8-8s8,3.582,8,8v176     C264,444.418,260.422,448,256,448z"
        fill="#b9bbc1" />
      <path
        d="M328,432H184c-13.234,0-24,10.766-24,24v32c0,13.234,10.766,24,24,24h144c13.234,0,24-10.766,24-24    v-32C352,442.765,341.234,432,328,432z"
        fill="#8b8996" />
      <path
        d="M123.312,372.687c-2.047,0-4.094-0.781-5.656-2.344c-3.125-3.125-3.125-8.188,0-11.312     l100.687-100.687c3.125-3.125,8.188-3.125,11.312,0s3.125,8.188,0,11.312L128.969,370.344     C127.406,371.906,125.359,372.687,123.312,372.687z"
        fill="#b9bbc1" />
      <path
        d="M388.687,372.687c-2.047,0-4.094-0.781-5.656-2.344l-92.687-92.687     c-3.125-3.125-3.125-8.187,0-11.312s8.188-3.125,11.312,0l92.687,92.687c3.125,3.125,3.125,8.188,0,11.312     C392.781,371.906,390.734,372.687,388.687,372.687z"
        fill="#b9bbc1" />
      <path
        d="M112,352H24c-13.234,0-24,10.766-24,24v32c0,13.234,10.766,24,24,24h88c13.234,0,24-10.766,24-24    v-32C136,362.765,125.234,352,112,352z"
        fill="#d8dce1" />
      <path d="M216,480h-24c-4.422,0-8-3.582-8-8s3.578-8,8-8h24c4.422,0,8,3.582,8,8S220.422,480,216,480z"
        fill="#b9bbc1" />
      <path d="M320,480h-72c-4.422,0-8-3.582-8-8s3.578-8,8-8h72c4.422,0,8,3.582,8,8S324.422,480,320,480z"
        fill="#b9bbc1" />
      <path d="M104,400H88c-4.422,0-8-3.582-8-8s3.578-8,8-8h16c4.422,0,8,3.582,8,8S108.422,400,104,400z"
        fill="#b9bbc1" />
      <path d="M64,400H32c-4.422,0-8-3.582-8-8s3.578-8,8-8h32c4.422,0,8,3.582,8,8S68.422,400,64,400z" fill="#b9bbc1" />
      <g>
        <path
          d="M256,192c-18.629,0-35.531-7.994-48.002-20.914c-0.009,7.743-0.291,18.92-2.344,27.074     c1.347,0.823,2.392,2.174,2.596,3.856C210.911,223.672,231.437,240,256,240c24.557,0,45.083-16.331,47.75-37.984     c0.207-1.684,1.229-3.033,2.597-3.854c-2.053-8.155-2.335-19.333-2.345-27.076C291.531,184.006,274.629,192,256,192z"
          fill="#fdc88e" />
        <path
          d="M302.96,172.069C290.594,184.387,274.132,192,256,192c-18.629,0-35.531-7.994-48.002-20.914     c-0.009,7.743-0.291,18.92-2.344,27.074c1.347,0.823,2.392,2.174,2.596,3.856c1.176,9.573,5.852,18.096,12.815,24.636     C253.177,222.129,289.624,190.421,302.96,172.069z"
          fill="#ffb980" />
        <path
          d="M353.344,203.919c-0.214-0.06-0.427-0.107-0.646-0.138l-42.573-6.388     c-0.26-0.039-0.818-0.06-1.083-0.06c-2.693,0-4.964,2.008-5.292,4.682C301.083,223.669,280.557,240,256,240     c-24.562,0-45.089-16.328-47.75-37.984c-0.333-2.753-2.812-4.823-5.427-4.68c-0.312-0.018-0.62,0.008-0.948,0.057l-42.573,6.388     c-0.219,0.031-0.432,0.078-0.646,0.138C138.531,209.555,128,229.357,128,246.005v20.661c0,8.797,7.833,15.953,17.464,15.953     h221.073c9.63,0,17.464-7.156,17.464-15.953v-20.661C384,229.357,373.469,209.555,353.344,203.919z"
          fill="#ff4f19" />
        <path
          d="M304,58.667h-90.667c-14.703,0-26.667,11.964-26.667,26.667v32     C186.667,158.505,217.771,192,256,192s69.333-33.495,69.333-74.667V80C325.333,68.237,315.765,58.667,304,58.667z"
          fill="#ffe1b2" />
        <path
          d="M293.333,0H224c-10.031,0-18.464,6.958-20.734,16.299c-18.359,2.333-32.599,18.052-32.599,37.034     V80c0,13.745,5.835,26.567,16,35.68V85.333c0-14.703,11.964-26.667,26.667-26.667H304c11.766,0,21.333,9.57,21.333,21.333v35.674     c10.167-9.111,16-21.933,16-35.674V48C341.333,21.534,319.802,0,293.333,0z"
          fill="#7e5449" />
      </g>
      <path
        d="M400,352h88c13.234,0,24,10.766,24,24v32c0,13.234-10.766,24-24,24h-88c-13.234,0-24-10.766-24-24    v-32C376,362.765,386.765,352,400,352z"
        fill="#d8dce1" />
      <path d="M408,400h16c4.422,0,8-3.582,8-8s-3.578-8-8-8h-16c-4.422,0-8,3.582-8,8S403.578,400,408,400z"
        fill="#b9bbc1" />
      <path d="M448,400h32c4.422,0,8-3.582,8-8s-3.578-8-8-8h-32c-4.422,0-8,3.582-8,8S443.578,400,448,400z"
        fill="#b9bbc1" />
    </g>
    <g transform="matrix(0.05414533966645354 0.017098527936082623 -0.017098527936082623 0.05414533966645354 -1.4839838029749544 62.761569893750746)"
      id="L1_50">
      <path
        d="M488,16H24C10.766,16,0,26.766,0,40v432c0,13.234,10.766,24,24,24h464c13.234,0,24-10.766,24-24V40    C512,26.766,501.234,16,488,16z"
        fill="#ffffff" />
      <path
        d="M488,16H24C10.766,16,0,26.766,0,40v432c0,13.234,10.766,24,24,24h464c13.234,0,24-10.766,24-24V40    C512,26.766,501.234,16,488,16z M496,472c0,4.418-3.582,8-8,8H24c-4.418,0-8-3.582-8-8V88c0-4.418,3.582-8,8-8h464    c4.418,0,8,3.582,8,8V472z"
        fill="#b9bbc1" />
      <path
        d="M32,56c-2.164,0-4.164-0.883-5.68-2.32C24.875,52.156,24,50.078,24,48s0.875-4.164,2.32-5.68     c2.961-2.961,8.398-2.961,11.359,0C39.117,43.836,40,45.922,40,48s-0.883,4.156-2.32,5.68C36.156,55.117,34.078,56,32,56z"
        fill="#ff4f19" />
      <path
        d="M56,56c-2.078,0-4.164-0.883-5.68-2.32C48.875,52.156,48,50.156,48,48     c0-2.078,0.875-4.164,2.32-5.68c2.961-2.961,8.398-2.961,11.359,0C63.117,43.836,64,45.922,64,48s-0.883,4.156-2.32,5.68     C60.156,55.117,58.078,56,56,56z"
        fill="#ffd200" />
      <path
        d="M80,56c-2.078,0-4.164-0.883-5.68-2.32C72.875,52.156,72,50.078,72,48     c0-2.164,0.875-4.242,2.32-5.68c3.039-2.961,8.32-2.961,11.359,0C87.117,43.758,88,45.836,88,48c0,2.078-0.883,4.156-2.32,5.68     C84.156,55.117,82.078,56,80,56z"
        fill="#00e68c" />
      <path
        d="M168,416H56c-4.422,0-8-3.578-8-8c0-4.422,3.578-8,8-8h112c4.422,0,8,3.578,8,8     C176,412.422,172.422,416,168,416z"
        fill="#5c546a" />
      <path
        d="M312,416H200c-4.422,0-8-3.578-8-8c0-4.422,3.578-8,8-8h112c4.422,0,8,3.578,8,8     C320,412.422,316.422,416,312,416z"
        fill="#5c546a" />
      <path
        d="M456,416H344c-4.422,0-8-3.578-8-8c0-4.422,3.578-8,8-8h112c4.422,0,8,3.578,8,8     C464,412.422,460.422,416,456,416z"
        fill="#5c546a" />
      <path d="M400,448h-56c-4.422,0-8-3.578-8-8s3.578-8,8-8h56c4.422,0,8,3.578,8,8S404.422,448,400,448z"
        fill="#b9bbc1" />
      <path d="M256,448h-56c-4.422,0-8-3.578-8-8s3.578-8,8-8h56c4.422,0,8,3.578,8,8S260.422,448,256,448z"
        fill="#b9bbc1" />
      <path d="M112,448H56c-4.422,0-8-3.578-8-8s3.578-8,8-8h56c4.422,0,8,3.578,8,8S116.422,448,112,448z"
        fill="#b9bbc1" />
      <path
        d="M336,128h-72c-4.422,0-8-3.578-8-8c0-4.422,3.578-8,8-8h72c4.422,0,8,3.578,8,8     C344,124.422,340.422,128,336,128z"
        fill="#ff4f19" />
      <path d="M456,160H264c-4.422,0-8-3.578-8-8s3.578-8,8-8h192c4.422,0,8,3.578,8,8S460.422,160,456,160z"
        fill="#e9001e" />
      <path
        d="M456,208H304c-4.422,0-8-3.578-8-8c0-4.422,3.578-8,8-8h152c4.422,0,8,3.578,8,8     C464,204.422,460.422,208,456,208z"
        fill="#b9bbc1" />
      <path
        d="M456,240H304c-4.422,0-8-3.578-8-8c0-4.422,3.578-8,8-8h152c4.422,0,8,3.578,8,8     C464,236.422,460.422,240,456,240z"
        fill="#b9bbc1" />
      <path d="M456,272H304c-4.422,0-8-3.578-8-8s3.578-8,8-8h152c4.422,0,8,3.578,8,8S460.422,272,456,272z"
        fill="#b9bbc1" />
      <path
        d="M272,208h-8c-4.422,0-8-3.578-8-8c0-4.422,3.578-8,8-8h8c4.422,0,8,3.578,8,8     C280,204.422,276.422,208,272,208z"
        fill="#ffd200" />
      <path
        d="M272,240h-8c-4.422,0-8-3.578-8-8c0-4.422,3.578-8,8-8h8c4.422,0,8,3.578,8,8     C280,236.422,276.422,240,272,240z"
        fill="#ffd200" />
      <path d="M272,272h-8c-4.422,0-8-3.578-8-8s3.578-8,8-8h8c4.422,0,8,3.578,8,8S276.422,272,272,272z"
        fill="#ffd200" />
      <g>
        <path d="M184,264h-72c-4.422,0-8-3.578-8-8s3.578-8,8-8h72c4.422,0,8,3.578,8,8S188.422,264,184,264z"
          fill="#8b8996" />
        <path
          d="M103.992,264c-1.398,0-2.82-0.367-4.109-1.141c-3.789-2.273-5.016-7.188-2.742-10.977l24-40      c2.273-3.781,7.18-5.023,10.977-2.742c3.789,2.273,5.016,7.188,2.742,10.977l-24,40C109.359,262.617,106.711,264,103.992,264z"
          fill="#8b8996" />
        <circle cx="191" cy="256" r="16" fill="#5c546a" />
        <circle cx="103" cy="256" r="16" fill="#5c546a" />
        <path
          d="M184,224h-48.648c-12.438,0-23.844-7.297-29.055-18.594L66.871,128H56c-4.422,0-8-3.578-8-8      c0-4.422,3.578-8,8-8h10.883c6.227,0,12.283,4.465,12.283,4.465L84.82,128H208c4.422,0,8,3.578,8,8v56      C216,209.648,201.648,224,184,224z"
          fill="#b9bbc1" />
        <path
          d="M72,128H56c-4.418,0-8-3.582-8-8v0c0-4.418,3.582-8,8-8h16c4.418,0,8,3.582,8,8v0     C80,124.418,76.418,128,72,128z"
          fill="#8b8996" />
      </g>
      <path
        d="M168,304H56c-4.418,0-8,3.582-8,8v64c0,4.418,3.582,8,8,8h112c4.418,0,8-3.582,8-8v-64    C176,307.582,172.418,304,168,304z"
        fill="#00e68c" />
      <path
        d="M312,304H200c-4.418,0-8,3.582-8,8v64c0,4.418,3.582,8,8,8h112c4.418,0,8-3.582,8-8v-64    C320,307.582,316.418,304,312,304z"
        fill="#ff4f19" />
      <path
        d="M456,304H344c-4.418,0-8,3.582-8,8v64c0,4.418,3.582,8,8,8h112c4.418,0,8-3.582,8-8v-64    C464,307.582,460.418,304,456,304z"
        fill="#00abff" />
    </g>
    <g transform="matrix(0.06704013339013004 0.0558667806354737 -0.0558667806354737 0.06704013339013004 -0.905127310054672 232.4956606800228)"
      id="L1_51">
      <path
        d="M453.758,298.398c-1.367,12.328-11.609,21.672-23.836,21.758H327.18    c-12.242-0.055-22.508-9.414-23.875-21.75c-2.258-20.469-4.516-38.586-6.758-56.641c-1.133-9.062-2.258-18.109-3.375-27.43    c-1.047-8.695,5.156-16.687,13.82-17.828c23.742-3.109,47.633-4.664,71.539-4.664c23.898,0,47.805,1.555,71.531,4.664    c8.672,1.141,14.875,9.133,13.82,17.828c-1.109,9.242-2.227,18.219-3.344,27.211C458.281,259.68,456.024,277.859,453.758,298.398z    "
        fill="#53dcff" />
      <path
        d="M364.963,192.064c-17.445,0.43-34.865,1.698-52.215,3.785l123.35,123.35    c9.334-2.589,16.533-10.635,17.66-20.801c0.596-5.405,1.192-10.632,1.787-15.752L364.963,192.064z"
        fill="#b3f4ff" />
      <path
        d="M40,232.156L5.029,218.168C1.992,216.953,0,214.011,0,210.74v-10.584c0-4.418,3.582-8,8-8h40    L40,232.156z"
        fill="#9f6459" />
      <path
        d="M472,232.156l34.971-13.988c3.037-1.215,5.029-4.157,5.029-7.428v-10.584c0-4.418-3.582-8-8-8h-40    L472,232.156z"
        fill="#9f6459" />
      <path
        d="M208.703,298.398c-1.367,12.328-11.609,21.672-23.836,21.758H82.125    c-12.242-0.055-22.508-9.414-23.875-21.75c-2.258-20.469-4.516-38.586-6.758-56.641c-1.133-9.062-2.258-18.109-3.375-27.43    c-1.047-8.695,5.156-16.687,13.82-17.828c23.742-3.109,47.633-4.664,71.539-4.664c23.898,0,47.805,1.555,71.531,4.664    c8.672,1.141,14.875,9.133,13.82,17.828c-1.109,9.242-2.227,18.219-3.344,27.211C213.226,259.68,210.969,277.859,208.703,298.398z    "
        fill="#53dcff" />
      <path
        d="M452.14,180.648c-48.844-6.406-98.383-6.406-147.227,0c-14.073,1.846-24.738,12.759-27.19,26.067    c-6.325-4.107-13.768-6.56-21.724-6.56c-7.958,0-15.4,2.452-21.725,6.56c-2.454-13.311-13.118-24.222-27.189-26.067    c-48.844-6.406-98.383-6.406-147.226,0c-17.32,2.273-29.719,18.242-27.633,35.594c1.125,9.352,2.258,18.414,3.383,27.492    c2.242,17.992,4.484,36.039,6.734,56.43c2.266,20.422,19.336,35.891,39.742,35.992h102.805c0.016,0,0.031,0,0.047,0    c20.352-0.117,37.406-15.594,39.672-36c2.25-20.469,4.508-38.578,6.75-56.641c0.355-2.846,0.707-5.762,1.061-8.613    c0.098-0.262,0.266-0.478,0.337-0.754c2.727-10.594,12.281-17.992,23.242-17.992c10.945,0,20.5,7.383,23.234,17.953    c0.066,0.256,0.243,0.441,0.332,0.685c0.358,2.887,0.714,5.841,1.074,8.721c2.242,18.062,4.5,36.172,6.75,56.648    c2.266,20.422,19.336,35.891,39.75,35.992h102.805c0.016,0,0.031,0,0.047,0c20.352-0.117,37.398-15.594,39.664-36    c2.25-20.383,4.492-38.43,6.734-56.422c1.125-9.078,2.258-18.141,3.383-27.492C481.859,198.891,469.461,182.922,452.14,180.648z     M208.703,298.398c-1.367,12.328-11.609,21.672-23.836,21.758H82.125c-12.242-0.055-22.508-9.414-23.875-21.75    c-2.258-20.469-4.516-38.586-6.758-56.641c-1.133-9.062-2.258-18.109-3.375-27.43c-1.047-8.695,5.156-16.687,13.82-17.828    c23.742-3.109,47.633-4.664,71.539-4.664c23.898,0,47.805,1.555,71.531,4.664c8.672,1.141,14.875,9.133,13.82,17.828    c-1.109,9.242-2.227,18.219-3.344,27.211C213.226,259.68,210.969,277.859,208.703,298.398z M463.883,214.336    c-1.117,9.32-2.242,18.367-3.375,27.43c-2.242,18.055-4.5,36.172-6.758,56.633c-1.367,12.328-11.609,21.672-23.828,21.758H327.18    c-12.25-0.055-22.516-9.414-23.883-21.75c-2.266-20.547-4.523-38.727-6.781-56.859c-1.117-8.992-2.234-17.969-3.344-27.219    c-1.055-8.688,5.148-16.68,13.82-17.82c23.734-3.109,47.633-4.664,71.531-4.664s47.805,1.555,71.539,4.664    C458.726,197.648,464.929,205.641,463.883,214.336z"
        fill="#5c546a" />
      <path
        d="M119.908,192.064c-17.445,0.43-34.865,1.698-52.215,3.785l123.35,123.35    c9.334-2.589,16.533-10.635,17.66-20.801c0.596-5.405,1.192-10.632,1.787-15.752L119.908,192.064z"
        fill="#b3f4ff" />
      <circle cx="172" cy="236" r="28" fill="#ffffff" />
      <circle cx="416" cy="240" r="24" fill="#ffffff" />
      <circle cx="420" cy="236" r="28" fill="#ffffff" />
    </g>
    <g transform="matrix(0.06780298630356146 0.01232781605200604 -0.01232781605200604 0.06780298630356146 81.81504926228682 150.50529583183538)"
      id="L1_52">
      <path
        d="M327.305,4.563c-4.086-4.203-10.344-5.578-17.609-3.656c-0.32,0.102-32.687,10.437-43.445,13.523    c-6.898,1.977-19.031,2.008-25.977,0.023c-10.867-3.094-43.57-13.477-44.297-13.695c-6.844-1.773-13.102-0.406-17.203,3.789    c-4.086,4.195-5.312,10.5-3.273,17.547l24.555,75.703c1.07,3.297,4.141,5.531,7.609,5.531h96c3.656,0,6.852-2.477,7.75-6.023    l19.234-75.461C332.609,15.055,331.391,8.75,327.305,4.563z"
        fill="#9f6459" />
      <path
        d="M255.664,15.862c-5.518,0.202-11.335-0.25-15.391-1.408c-10.867-3.094-43.57-13.477-44.297-13.695    c-6.844-1.773-13.102-0.406-17.203,3.789c-4.086,4.195-5.312,10.5-3.273,17.547l24.555,75.703c1.07,3.297,4.141,5.531,7.609,5.531    h48V15.862z"
        fill="#7e5c62" />
      <path
        d="M352.102,177.188c-21.695-19.336-40.437-36.031-40.437-49.859c0-4.422-3.578-8-8-8h-96    c-4.422,0-8,3.578-8,8c0,13.828-18.742,30.523-40.437,49.859c-43.711,38.93-103.562,92.258-103.562,190.141    c0,69.352,52.57,144,168,144h64c115.43,0,168-74.648,168-144C455.664,269.446,395.813,216.118,352.102,177.188z"
        fill="#9f6459" />
      <path
        d="M255.664,119.329h-48c-4.422,0-8,3.578-8,8c0,13.828-18.742,30.523-40.437,49.859    c-43.711,38.93-103.562,92.258-103.562,190.141c0,69.352,52.57,144,168,144h32V119.329z"
        fill="#7e5c62" />
      <circle cx="255" cy="335" r="120" fill="#869b55" />
      <path d="M375.664,335.327c0-66.274-53.726-120-120-120v240    C321.939,455.327,375.664,401.601,375.664,335.327z"
        fill="#74d24f" />
      <path
        d="M319.664,111.327c0,8.8-7.2,16-16,16h-96c-8.8,0-16-7.2-16-16l0,0c0-8.8,7.2-16,16-16h96    C312.464,95.327,319.664,102.527,319.664,111.327L319.664,111.327z"
        fill="#869b55" />
      <path
        d="M255.664,323.328c-16.023,0-28-8.445-28-16c0-7.555,11.977-16,28-16s28,8.445,28,16    c0,6.625,5.375,12,12,12c6.625,0,12-5.375,12-12c0-19.236-16.824-34.862-40-38.932v-5.068c0-6.625-5.375-12-12-12s-12,5.375-12,12    v5.068c-23.176,4.07-40,19.695-40,38.932c0,22.43,22.844,40,52,40c16.023,0,28,8.445,28,16c0,7.555-11.977,16-28,16    s-28-8.445-28-16c0-6.625-5.375-12-12-12c-6.625,0-12,5.375-12,12c0,19.236,16.824,34.862,40,38.932v5.068c0,6.625,5.375,12,12,12    s12-5.375,12-12v-5.068c23.176-4.07,40-19.695,40-38.932C307.664,340.899,284.82,323.328,255.664,323.328z"
        fill="#ffefbc" />
      <path d="M303.664,95.327h-48v32h48c8.8,0,16-7.2,16-16C319.664,102.527,312.464,95.327,303.664,95.327z"
        fill="#74d24f" />
    </g>
    <g transform="matrix(0.060766989798832736 0.01381067940009391 -0.01381067940009391 0.060766989798832736 245.97918453792286 153.9081166850748)"
      id="L1_53">
      <path d="m512 106c0 8.401-6.599 15-15 15h-482c-8.401 0-15-6.599-15-15s6.599-15 15-15h482c8.401 0 15 6.599 15 15z"
        fill="#596c76" />
      <path
        d="m512 226c0 8.399-6.599 15-15 15h-482c-8.401 0-15-6.601-15-15 0-8.401 6.599-15 15-15h482c8.401 0 15 6.599 15 15z"
        fill="#596c76" />
      <path
        d="m512 346c0 8.399-6.599 15-15 15h-482c-8.401 0-15-6.601-15-15 0-8.401 6.599-15 15-15h482c8.401 0 15 6.599 15 15z"
        fill="#596c76" />
      <path d="m512 346c0 8.399-6.599 15-15 15h-241v-30h241c8.401 0 15 6.599 15 15z" fill="#465a61" />
      <path d="m512 226c0 8.399-6.599 15-15 15h-241v-30h241c8.401 0 15 6.599 15 15z" fill="#465a61" />
      <path d="m497 121h-241v-30h241c8.401 0 15 6.599 15 15s-6.599 15-15 15z" fill="#465a61" />
      <path d="m151 346c0 16.5-13.5 30-30 30s-30-13.5-30-30 13.5-30 30-30 30 13.5 30 30z" fill="#ff7cb9" />
      <path d="m421 346c0 16.5-13.5 30-30 30s-30-13.5-30-30 13.5-30 30-30 30 13.5 30 30z" fill="#ff7cb9" />
      <path d="m361 346c0 16.5-13.5 30-30 30s-30-13.5-30-30 13.5-30 30-30 30 13.5 30 30z" fill="#ff7cb9" />
      <path d="m391 226c0 16.5-13.5 30-30 30s-30-13.5-30-30 13.5-30 30-30 30 13.5 30 30z" fill="#ffda2d" />
      <path d="m241 226c0 16.5-13.5 30-30 30s-30-13.5-30-30 13.5-30 30-30 30 13.5 30 30z" fill="#ffda2d" />
      <g fill="#76e2f8">
        <path d="m211 106c0 16.5-13.5 30-30 30s-30-13.5-30-30 13.5-30 30-30 30 13.5 30 30z" />
        <path d="m271 106c0 16.5-13.5 30-30 30s-30-13.5-30-30 13.5-30 30-30 30 13.5 30 30z" />
        <path d="m421 106c0 16.5-13.5 30-30 30s-30-13.5-30-30 13.5-30 30-30 30 13.5 30 30z" />
        <path d="m151 106c0 16.5-13.5 30-30 30s-30-13.5-30-30 13.5-30 30-30 30 13.5 30 30z" />
      </g>
      <path d="m151 106c0 16.5-13.5 30-30 30v-60c16.5 0 30 13.5 30 30z" fill="#4bb9ec" />
      <path d="m211 106c0 16.5-13.5 30-30 30v-60c16.5 0 30 13.5 30 30z" fill="#4bb9ec" />
      <path d="m271 106c0 16.5-13.5 30-30 30v-60c16.5 0 30 13.5 30 30z" fill="#4bb9ec" />
      <path d="m421 106c0 16.5-13.5 30-30 30v-60c16.5 0 30 13.5 30 30z" fill="#4bb9ec" />
      <path d="m421 346c0 16.5-13.5 30-30 30v-60c16.5 0 30 13.5 30 30z" fill="#ff3980" />
      <path d="m361 346c0 16.5-13.5 30-30 30v-60c16.5 0 30 13.5 30 30z" fill="#ff3980" />
      <path d="m151 346c0 16.5-13.5 30-30 30v-60c16.5 0 30 13.5 30 30z" fill="#ff3980" />
      <path d="m241 226c0 16.5-13.5 30-30 30v-60c16.5 0 30 13.5 30 30z" fill="#fdbf00" />
      <path d="m391 226c0 16.5-13.5 30-30 30v-60c16.5 0 30 13.5 30 30z" fill="#fdbf00" />
      <path
        d="m482 45v422c0 8.399-6.599 15-15 15s-15-6.601-15-15v-422c0-8.401-6.599-15-15-15h-361c-8.401 0-16 6.599-16 15v422c0 8.399-6.599 15-15 15s-15-6.601-15-15v-422c0-24.901 21.099-45 46-45h361c24.901 0 45 20.099 45 45z"
        fill="#ffda2d" />
      <path
        d="m482 45v422c0 8.399-6.599 15-15 15s-15-6.601-15-15v-422c0-8.401-6.599-15-15-15h-181v-30h181c24.901 0 45 20.099 45 45z"
        fill="#fdbf00" />
      <path
        d="m497 421h-482c-8.401 0-15 6.599-15 15v61c0 8.399 6.599 15 15 15h482c8.401 0 15-6.601 15-15v-61c0-8.401-6.599-15-15-15z"
        fill="#fff261" />
      <path d="m512 436v61c0 8.399-6.599 15-15 15h-241v-91h241c8.401 0 15 6.599 15 15z" fill="#ffda2d" />
    </g>
    <g transform="matrix(0.03590780377928824 -0.016572832660616068 0.016572832660616068 0.03590780377928824 290.56488419262126 40.05013887860629)"
      id="L1_55">
      <path
        d="m71.368 511.546c-8.042-2.007-12.935-10.151-10.913-18.179l30-121c1.992-8.057 10.122-12.935 18.179-10.913 8.042 2.007 12.935 10.151 10.913 18.179l-30 121c-2.018 8.108-10.23 12.924-18.179 10.913z"
        fill="#465a61" />
      <path
        d="m422.455 500.633-30-121c-2.021-8.027 2.871-16.172 10.913-18.179 8.013-2.007 16.172 2.856 18.179 10.913l30 121c2.021 8.027-2.871 16.172-10.913 18.179-7.938 2.008-16.158-2.794-18.179-10.913z"
        fill="#3b4a51" />
      <path d="m482.001 15v331h-452v-331c0-8.401 6.599-15 15-15h422c8.401 0 15 6.599 15 15z" fill="#465a61" />
      <path d="m482.001 15v331h-226v-346h211c8.401 0 15 6.599 15 15z" fill="#3b4a51" />
      <path d="m60.001 30h392v331h-392z" fill="#54e360" />
      <path d="m256.001 30h196v331h-196z" fill="#00cc71" />
      <path
        d="m407.001 271h-91c-8.291 0-15 6.709-15 15v60c0 8.291 6.709 15 15 15h91c8.291 0 15-6.709 15-15v-60c0-8.291-6.709-15-15-15z"
        fill="#ffda2d" />
      <path
        d="m165.001 150h-15v-45c0-8.291-6.709-15-15-15h-30c-8.291 0-15 6.709-15 15s6.709 15 15 15h15v30h-15c-8.291 0-15 6.709-15 15s6.709 15 15 15h60c8.291 0 15-6.709 15-15s-6.709-15-15-15z"
        fill="#fff5f5" />
      <path
        d="m407.001 150h-15v-45c0-8.291-6.709-15-15-15h-30c-8.291 0-15 6.709-15 15s6.709 15 15 15h15v30h-15c-8.291 0-15 6.709-15 15s6.709 15 15 15h60c8.291 0 15-6.709 15-15s-6.709-15-15-15z"
        fill="#f7f0eb" />
      <path
        d="m301.001 135c0 8.401-6.599 15-15 15h-15v15c0 8.401-6.599 15-15 15s-15-6.599-15-15v-15h-15c-8.401 0-15-6.599-15-15s6.599-15 15-15h15v-15c0-8.401 6.599-15 15-15s15 6.599 15 15v15h15c8.401 0 15 6.599 15 15z"
        fill="#fff5f5" />
      <path
        d="m256.001 180v-90c8.401 0 15 6.599 15 15v15h15c8.401 0 15 6.599 15 15s-6.599 15-15 15h-15v15c0 8.401-6.599 15-15 15z"
        fill="#f7f0eb" />
      <path
        d="m497.001 331h-482c-8.401 0-15 6.599-15 15v30c0 8.401 6.599 15 15 15h482c8.401 0 15-6.599 15-15v-30c0-8.401-6.599-15-15-15z"
        fill="#596c76" />
      <path d="m512.001 346v30c0 8.401-6.599 15-15 15h-241v-60h241c8.401 0 15 6.599 15 15z" fill="#465a61" />
    </g>
  </defs>
  <g fi:class="KUsePattern">
    <pattern id="pattern_L1_38" width="350" height="350" patternUnits="userSpaceOnUse">
      <use xlink:href="#L1_38" x="-350" y="-350" />
      <use xlink:href="#L1_38" x="0" y="-350" />
      <use xlink:href="#L1_38" x="350" y="-350" />
      <use xlink:href="#L1_38" x="-350" y="0" />
      <use xlink:href="#L1_38" x="0" y="0" />
      <use xlink:href="#L1_38" x="350" y="0" />
      <use xlink:href="#L1_38" x="-350" y="350" />
      <use xlink:href="#L1_38" x="0" y="350" />
      <use xlink:href="#L1_38" x="350" y="350" />
    </pattern>
    <rect x="0" y="0" width="100%" height="100%" fill="url(#pattern_L1_38)" />
  </g>
  <g fi:class="KUsePattern">
    <pattern id="pattern_L1_39" width="350" height="350" patternUnits="userSpaceOnUse">
      <use xlink:href="#L1_39" x="-350" y="-350" />
      <use xlink:href="#L1_39" x="0" y="-350" />
      <use xlink:href="#L1_39" x="350" y="-350" />
      <use xlink:href="#L1_39" x="-350" y="0" />
      <use xlink:href="#L1_39" x="0" y="0" />
      <use xlink:href="#L1_39" x="350" y="0" />
      <use xlink:href="#L1_39" x="-350" y="350" />
      <use xlink:href="#L1_39" x="0" y="350" />
      <use xlink:href="#L1_39" x="350" y="350" />
    </pattern>
    <rect x="0" y="0" width="100%" height="100%" fill="url(#pattern_L1_39)" />
  </g>
  <g fi:class="KUsePattern">
    <pattern id="pattern_L1_40" width="350" height="350" patternUnits="userSpaceOnUse">
      <use xlink:href="#L1_40" x="-350" y="-350" />
      <use xlink:href="#L1_40" x="0" y="-350" />
      <use xlink:href="#L1_40" x="350" y="-350" />
      <use xlink:href="#L1_40" x="-350" y="0" />
      <use xlink:href="#L1_40" x="0" y="0" />
      <use xlink:href="#L1_40" x="350" y="0" />
      <use xlink:href="#L1_40" x="-350" y="350" />
      <use xlink:href="#L1_40" x="0" y="350" />
      <use xlink:href="#L1_40" x="350" y="350" />
    </pattern>
    <rect x="0" y="0" width="100%" height="100%" fill="url(#pattern_L1_40)" />
  </g>
  <g fi:class="KUsePattern">
    <pattern id="pattern_L1_41" width="350" height="350" patternUnits="userSpaceOnUse">
      <use xlink:href="#L1_41" x="-350" y="-350" />
      <use xlink:href="#L1_41" x="0" y="-350" />
      <use xlink:href="#L1_41" x="350" y="-350" />
      <use xlink:href="#L1_41" x="-350" y="0" />
      <use xlink:href="#L1_41" x="0" y="0" />
      <use xlink:href="#L1_41" x="350" y="0" />
      <use xlink:href="#L1_41" x="-350" y="350" />
      <use xlink:href="#L1_41" x="0" y="350" />
      <use xlink:href="#L1_41" x="350" y="350" />
    </pattern>
    <rect x="0" y="0" width="100%" height="100%" fill="url(#pattern_L1_41)" />
  </g>
  <g fi:class="KUsePattern">
    <pattern id="pattern_L1_42" width="350" height="350" patternUnits="userSpaceOnUse">
      <use xlink:href="#L1_42" x="-350" y="-350" />
      <use xlink:href="#L1_42" x="0" y="-350" />
      <use xlink:href="#L1_42" x="350" y="-350" />
      <use xlink:href="#L1_42" x="-350" y="0" />
      <use xlink:href="#L1_42" x="0" y="0" />
      <use xlink:href="#L1_42" x="350" y="0" />
      <use xlink:href="#L1_42" x="-350" y="350" />
      <use xlink:href="#L1_42" x="0" y="350" />
      <use xlink:href="#L1_42" x="350" y="350" />
    </pattern>
    <rect x="0" y="0" width="100%" height="100%" fill="url(#pattern_L1_42)" />
  </g>
  <g fi:class="KUsePattern">
    <pattern id="pattern_L1_43" width="350" height="350" patternUnits="userSpaceOnUse">
      <use xlink:href="#L1_43" x="-350" y="-350" />
      <use xlink:href="#L1_43" x="0" y="-350" />
      <use xlink:href="#L1_43" x="350" y="-350" />
      <use xlink:href="#L1_43" x="-350" y="0" />
      <use xlink:href="#L1_43" x="0" y="0" />
      <use xlink:href="#L1_43" x="350" y="0" />
      <use xlink:href="#L1_43" x="-350" y="350" />
      <use xlink:href="#L1_43" x="0" y="350" />
      <use xlink:href="#L1_43" x="350" y="350" />
    </pattern>
    <rect x="0" y="0" width="100%" height="100%" fill="url(#pattern_L1_43)" />
  </g>
  <g fi:class="KUsePattern">
    <pattern id="pattern_L1_44" width="350" height="350" patternUnits="userSpaceOnUse">
      <use xlink:href="#L1_44" x="-350" y="-350" />
      <use xlink:href="#L1_44" x="0" y="-350" />
      <use xlink:href="#L1_44" x="350" y="-350" />
      <use xlink:href="#L1_44" x="-350" y="0" />
      <use xlink:href="#L1_44" x="0" y="0" />
      <use xlink:href="#L1_44" x="350" y="0" />
      <use xlink:href="#L1_44" x="-350" y="350" />
      <use xlink:href="#L1_44" x="0" y="350" />
      <use xlink:href="#L1_44" x="350" y="350" />
    </pattern>
    <rect x="0" y="0" width="100%" height="100%" fill="url(#pattern_L1_44)" />
  </g>
  <g fi:class="KUsePattern">
    <pattern id="pattern_L1_45" width="350" height="350" patternUnits="userSpaceOnUse">
      <use xlink:href="#L1_45" x="-350" y="-350" />
      <use xlink:href="#L1_45" x="0" y="-350" />
      <use xlink:href="#L1_45" x="350" y="-350" />
      <use xlink:href="#L1_45" x="-350" y="0" />
      <use xlink:href="#L1_45" x="0" y="0" />
      <use xlink:href="#L1_45" x="350" y="0" />
      <use xlink:href="#L1_45" x="-350" y="350" />
      <use xlink:href="#L1_45" x="0" y="350" />
      <use xlink:href="#L1_45" x="350" y="350" />
    </pattern>
    <rect x="0" y="0" width="100%" height="100%" fill="url(#pattern_L1_45)" />
  </g>
  <g fi:class="KUsePattern">
    <pattern id="pattern_L1_46" width="350" height="350" patternUnits="userSpaceOnUse">
      <use xlink:href="#L1_46" x="-350" y="-350" />
      <use xlink:href="#L1_46" x="0" y="-350" />
      <use xlink:href="#L1_46" x="350" y="-350" />
      <use xlink:href="#L1_46" x="-350" y="0" />
      <use xlink:href="#L1_46" x="0" y="0" />
      <use xlink:href="#L1_46" x="350" y="0" />
      <use xlink:href="#L1_46" x="-350" y="350" />
      <use xlink:href="#L1_46" x="0" y="350" />
      <use xlink:href="#L1_46" x="350" y="350" />
    </pattern>
    <rect x="0" y="0" width="100%" height="100%" fill="url(#pattern_L1_46)" />
  </g>
  <g fi:class="KUsePattern">
    <pattern id="pattern_L1_47" width="350" height="350" patternUnits="userSpaceOnUse">
      <use xlink:href="#L1_47" x="-350" y="-350" />
      <use xlink:href="#L1_47" x="0" y="-350" />
      <use xlink:href="#L1_47" x="350" y="-350" />
      <use xlink:href="#L1_47" x="-350" y="0" />
      <use xlink:href="#L1_47" x="0" y="0" />
      <use xlink:href="#L1_47" x="350" y="0" />
      <use xlink:href="#L1_47" x="-350" y="350" />
      <use xlink:href="#L1_47" x="0" y="350" />
      <use xlink:href="#L1_47" x="350" y="350" />
    </pattern>
    <rect x="0" y="0" width="100%" height="100%" fill="url(#pattern_L1_47)" />
  </g>
  <g fi:class="KUsePattern">
    <pattern id="pattern_L1_48" width="350" height="350" patternUnits="userSpaceOnUse">
      <use xlink:href="#L1_48" x="-350" y="-350" />
      <use xlink:href="#L1_48" x="0" y="-350" />
      <use xlink:href="#L1_48" x="350" y="-350" />
      <use xlink:href="#L1_48" x="-350" y="0" />
      <use xlink:href="#L1_48" x="0" y="0" />
      <use xlink:href="#L1_48" x="350" y="0" />
      <use xlink:href="#L1_48" x="-350" y="350" />
      <use xlink:href="#L1_48" x="0" y="350" />
      <use xlink:href="#L1_48" x="350" y="350" />
    </pattern>
    <rect x="0" y="0" width="100%" height="100%" fill="url(#pattern_L1_48)" />
  </g>
  <g fi:class="KUsePattern">
    <pattern id="pattern_L1_49" width="350" height="350" patternUnits="userSpaceOnUse">
      <use xlink:href="#L1_49" x="-350" y="-350" />
      <use xlink:href="#L1_49" x="0" y="-350" />
      <use xlink:href="#L1_49" x="350" y="-350" />
      <use xlink:href="#L1_49" x="-350" y="0" />
      <use xlink:href="#L1_49" x="0" y="0" />
      <use xlink:href="#L1_49" x="350" y="0" />
      <use xlink:href="#L1_49" x="-350" y="350" />
      <use xlink:href="#L1_49" x="0" y="350" />
      <use xlink:href="#L1_49" x="350" y="350" />
    </pattern>
    <rect x="0" y="0" width="100%" height="100%" fill="url(#pattern_L1_49)" />
  </g>
  <g fi:class="KUsePattern">
    <pattern id="pattern_L1_50" width="350" height="350" patternUnits="userSpaceOnUse">
      <use xlink:href="#L1_50" x="-350" y="-350" />
      <use xlink:href="#L1_50" x="0" y="-350" />
      <use xlink:href="#L1_50" x="350" y="-350" />
      <use xlink:href="#L1_50" x="-350" y="0" />
      <use xlink:href="#L1_50" x="0" y="0" />
      <use xlink:href="#L1_50" x="350" y="0" />
      <use xlink:href="#L1_50" x="-350" y="350" />
      <use xlink:href="#L1_50" x="0" y="350" />
      <use xlink:href="#L1_50" x="350" y="350" />
    </pattern>
    <rect x="0" y="0" width="100%" height="100%" fill="url(#pattern_L1_50)" />
  </g>
  <g fi:class="KUsePattern">
    <pattern id="pattern_L1_51" width="350" height="350" patternUnits="userSpaceOnUse">
      <use xlink:href="#L1_51" x="-350" y="-350" />
      <use xlink:href="#L1_51" x="0" y="-350" />
      <use xlink:href="#L1_51" x="350" y="-350" />
      <use xlink:href="#L1_51" x="-350" y="0" />
      <use xlink:href="#L1_51" x="0" y="0" />
      <use xlink:href="#L1_51" x="350" y="0" />
      <use xlink:href="#L1_51" x="-350" y="350" />
      <use xlink:href="#L1_51" x="0" y="350" />
      <use xlink:href="#L1_51" x="350" y="350" />
    </pattern>
    <rect x="0" y="0" width="100%" height="100%" fill="url(#pattern_L1_51)" />
  </g>
  <g fi:class="KUsePattern">
    <pattern id="pattern_L1_52" width="350" height="350" patternUnits="userSpaceOnUse">
      <use xlink:href="#L1_52" x="-350" y="-350" />
      <use xlink:href="#L1_52" x="0" y="-350" />
      <use xlink:href="#L1_52" x="350" y="-350" />
      <use xlink:href="#L1_52" x="-350" y="0" />
      <use xlink:href="#L1_52" x="0" y="0" />
      <use xlink:href="#L1_52" x="350" y="0" />
      <use xlink:href="#L1_52" x="-350" y="350" />
      <use xlink:href="#L1_52" x="0" y="350" />
      <use xlink:href="#L1_52" x="350" y="350" />
    </pattern>
    <rect x="0" y="0" width="100%" height="100%" fill="url(#pattern_L1_52)" />
  </g>
  <g fi:class="KUsePattern">
    <pattern id="pattern_L1_53" width="350" height="350" patternUnits="userSpaceOnUse">
      <use xlink:href="#L1_53" x="-350" y="-350" />
      <use xlink:href="#L1_53" x="0" y="-350" />
      <use xlink:href="#L1_53" x="350" y="-350" />
      <use xlink:href="#L1_53" x="-350" y="0" />
      <use xlink:href="#L1_53" x="0" y="0" />
      <use xlink:href="#L1_53" x="350" y="0" />
      <use xlink:href="#L1_53" x="-350" y="350" />
      <use xlink:href="#L1_53" x="0" y="350" />
      <use xlink:href="#L1_53" x="350" y="350" />
    </pattern>
    <rect x="0" y="0" width="100%" height="100%" fill="url(#pattern_L1_53)" />
  </g>
  <g fi:class="KUsePattern">
    <pattern id="pattern_L1_55" width="350" height="350" patternUnits="userSpaceOnUse">
      <use xlink:href="#L1_55" x="-350" y="-350" />
      <use xlink:href="#L1_55" x="0" y="-350" />
      <use xlink:href="#L1_55" x="350" y="-350" />
      <use xlink:href="#L1_55" x="-350" y="0" />
      <use xlink:href="#L1_55" x="0" y="0" />
      <use xlink:href="#L1_55" x="350" y="0" />
      <use xlink:href="#L1_55" x="-350" y="350" />
      <use xlink:href="#L1_55" x="0" y="350" />
      <use xlink:href="#L1_55" x="350" y="350" />
    </pattern>
    <rect x="0" y="0" width="100%" height="100%" fill="url(#pattern_L1_55)" />
  </g>
</svg>
